<?xml version="1.0"?>
<svg xmlns="http://www.w3.org/2000/svg" xmlns:xlink="http://www.w3.org/1999/xlink" version="1.1" id="Capa_1" x="0px" y="0px" viewBox="0 0 58 58" style="enable-background:new 0 0 58 58;" xml:space="preserve" width="512px" height="512px" class=""><g><g>
	<g>
		<polygon style="fill:#EFEBDE;" points="46,14 32,0 1,0 1,58 46,58   " data-original="#EFEBDE"/>
		<g>
			<path style="fill:#D5D0BB;" d="M11,23h25c0.552,0,1-0.447,1-1s-0.448-1-1-1H11c-0.552,0-1,0.447-1,1S10.448,23,11,23z" data-original="#D5D0BB"/>
			<path style="fill:#D5D0BB;" d="M11,15h10c0.552,0,1-0.447,1-1s-0.448-1-1-1H11c-0.552,0-1,0.447-1,1S10.448,15,11,15z" data-original="#D5D0BB"/>
			<path style="fill:#D5D0BB;" d="M36,29H11c-0.552,0-1,0.447-1,1s0.448,1,1,1h25c0.552,0,1-0.447,1-1S36.552,29,36,29z" data-original="#D5D0BB"/>
			<path style="fill:#D5D0BB;" d="M36,37H11c-0.552,0-1,0.447-1,1s0.448,1,1,1h25c0.552,0,1-0.447,1-1S36.552,37,36,37z" data-original="#D5D0BB"/>
			<path style="fill:#D5D0BB;" d="M36,45H11c-0.552,0-1,0.447-1,1s0.448,1,1,1h25c0.552,0,1-0.447,1-1S36.552,45,36,45z" data-original="#D5D0BB"/>
		</g>
		<polygon style="fill:#D5D0BB;" points="32,0 32,14 46,14   " data-original="#D5D0BB"/>
	</g>
	<g>
		<rect x="35" y="36" style="fill:#48A0DC;" width="22" height="22" data-original="#48A0DC"/>
		<rect x="45" y="42" style="fill:#FFFFFF;" width="2" height="16" data-original="#FFFFFF"/>
		<polygon style="fill:#FFFFFF;" points="51.293,48.707 46,43.414 40.707,48.707 39.293,47.293 46,40.586 52.707,47.293   " data-original="#FFFFFF"/>
	</g>
</g></g> </svg>
