<?xml version="1.0"?>
<svg xmlns="http://www.w3.org/2000/svg" xmlns:xlink="http://www.w3.org/1999/xlink" version="1.1" id="Capa_1" x="0px" y="0px" viewBox="0 0 59.39 59.39" style="enable-background:new 0 0 59.39 59.39;" xml:space="preserve" width="512px" height="512px" class=""><g><g>
	<polygon style="fill:#1870C6" points="25,10.695 20,3.695 0,3.695 0,10.695 0,54.695 58,54.695 58,17.695 30,17.695  " data-original="#556080" class="" data-old_color="#556080"/>
	<polygon style="fill:#314972" points="30,17.695 58,17.695 58,10.695 25,10.695  " data-original="#3D4451" class="active-path" data-old_color="#3D4451"/>
	<g>
		<circle style="fill:#00FF2B" cx="47.39" cy="43.695" r="12" data-original="#71C386" class="" data-old_color="#02FF00"/>
		<path style="fill:#FFFFFF;" d="M53.39,42.695h-5v-5c0-0.552-0.448-1-1-1s-1,0.448-1,1v5h-5c-0.552,0-1,0.448-1,1s0.448,1,1,1h5v5    c0,0.552,0.448,1,1,1s1-0.448,1-1v-5h5c0.552,0,1-0.448,1-1S53.942,42.695,53.39,42.695z" data-original="#FFFFFF" class=""/>
	</g>
</g></g> </svg>
