<?xml version="1.0"?>
<svg xmlns="http://www.w3.org/2000/svg" xmlns:xlink="http://www.w3.org/1999/xlink" version="1.1" id="Capa_1" x="0px" y="0px" viewBox="0 0 60 60" style="enable-background:new 0 0 60 60;" xml:space="preserve" width="512px" height="512px" class=""><g><g>
	<g>
		<path style="fill:#282883" d="M18.306,33.28l-5.013,5.013c-0.391,0.391-0.391,1.023,0,1.414C13.488,39.902,13.744,40,14,40    s0.512-0.098,0.707-0.293l5.013-5.013c0.391-0.391,0.391-1.023,0-1.414S18.696,32.89,18.306,33.28z" data-original="#9777A8" class="" data-old_color="#9777A8"/>
		<path style="fill:#282883" d="M27.694,33.28c-0.391-0.391-1.023-0.391-1.414,0s-0.391,1.023,0,1.414l6.025,6.025    c0.195,0.195,0.451,0.293,0.707,0.293s0.512-0.098,0.707-0.293c0.391-0.391,0.391-1.023,0-1.414L27.694,33.28z" data-original="#9777A8" class="" data-old_color="#9777A8"/>
		<path style="fill:#282883" d="M50.707,30.293c-0.391-0.391-1.023-0.391-1.414,0l-10,10c-0.391,0.391-0.391,1.023,0,1.414    C39.488,41.902,39.744,42,40,42s0.512-0.098,0.707-0.293l10-10C51.098,31.316,51.098,30.684,50.707,30.293z" data-original="#9777A8" class="" data-old_color="#9777A8"/>
	</g>
	<path style="fill:#556080;" d="M3,60c-0.553,0-1-0.447-1-1V1c0-0.553,0.447-1,1-1s1,0.447,1,1v58C4,59.553,3.553,60,3,60z" data-original="#556080"/>
	<path style="fill:#556080;" d="M59,58H1c-0.553,0-1-0.447-1-1s0.447-1,1-1h58c0.553,0,1,0.447,1,1S59.553,58,59,58z" data-original="#556080"/>
	<path style="fill:#BDC3C7;" d="M9,29H7c-0.553,0-1-0.447-1-1s0.447-1,1-1h2c0.553,0,1,0.447,1,1S9.553,29,9,29z" data-original="#BDC3C7"/>
	<path style="fill:#BDC3C7;" d="M9,25H7c-0.553,0-1-0.447-1-1s0.447-1,1-1h2c0.553,0,1,0.447,1,1S9.553,25,9,25z" data-original="#BDC3C7"/>
	<path style="fill:#BDC3C7;" d="M9,21H7c-0.553,0-1-0.447-1-1s0.447-1,1-1h2c0.553,0,1,0.447,1,1S9.553,21,9,21z" data-original="#BDC3C7"/>
	<path style="fill:#BDC3C7;" d="M9,17H7c-0.553,0-1-0.447-1-1s0.447-1,1-1h2c0.553,0,1,0.447,1,1S9.553,17,9,17z" data-original="#BDC3C7"/>
	<path style="fill:#BDC3C7;" d="M9,13H7c-0.553,0-1-0.447-1-1s0.447-1,1-1h2c0.553,0,1,0.447,1,1S9.553,13,9,13z" data-original="#BDC3C7"/>
	<path style="fill:#BDC3C7;" d="M9,9H7C6.447,9,6,8.553,6,8s0.447-1,1-1h2c0.553,0,1,0.447,1,1S9.553,9,9,9z" data-original="#BDC3C7"/>
	<path style="fill:#BDC3C7;" d="M9,5H7C6.447,5,6,4.553,6,4s0.447-1,1-1h2c0.553,0,1,0.447,1,1S9.553,5,9,5z" data-original="#BDC3C7"/>
	<circle style="fill:#F20000" cx="11.012" cy="42.988" r="5" data-original="#F29C1F" class="active-path" data-old_color="#F29C1F"/>
	<circle style="fill:#07F843" cx="23" cy="31" r="5" data-original="#71C285" class="" data-old_color="#0CF846"/>
	<circle style="fill:#07F843" cx="54" cy="28" r="5" data-original="#71C285" class="" data-old_color="#0CF846"/>
	<circle style="fill:#F20000" cx="36" cy="44" r="5" data-original="#F29C1F" class="active-path" data-old_color="#F29C1F"/>
</g></g> </svg>
