<?xml version="1.0" encoding="UTF-8"?>
<!DOCTYPE svg PUBLIC "-//W3C//DTD SVG 1.1//EN" "http://www.w3.org/Graphics/SVG/1.1/DTD/svg11.dtd">
<!-- Creator: CorelDRAW X7 -->
<svg xmlns="http://www.w3.org/2000/svg" xml:space="preserve" width="43.3492mm" height="25.3998mm" version="1.1" style="shape-rendering:geometricPrecision; text-rendering:geometricPrecision; image-rendering:optimizeQuality; fill-rule:evenodd; clip-rule:evenodd"
viewBox="0 0 4335 2540"
 xmlns:xlink="http://www.w3.org/1999/xlink">
 <defs>
  <style type="text/css">
   <![CDATA[
    .str1 {stroke:#1D6FB7;stroke-width:20}
    .str0 {stroke:#003399;stroke-width:7.62}
    .fil5 {fill:black}
    .fil3 {fill:#003399}
    .fil4 {fill:#1D6FB7}
    .fil0 {fill:#CCCCFF}
    .fil2 {fill:#EDB937}
    .fil1 {fill:#FAD24D}
    .fil7 {fill:#99FF00;fill-rule:nonzero}
    .fil6 {fill:red;fill-rule:nonzero}
   ]]>
  </style>
 </defs>
 <g id="Camada_x0020_1">
  <metadata id="CorelCorpID_0Corel-Layer"/>
  <g id="_434686376">
   <g>
    <circle class="fil0" cx="3179" cy="1681" r="542"/>
    <path class="fil1" d="M3420 2049l-43 -181c0,0 145,-139 129,-317 -17,-178 -196,-290 -378,-242 -182,49 -213,195 -213,219 -1,24 21,85 5,127 -16,42 -74,107 -69,127 6,19 55,23 55,23 0,0 1,19 -6,23 -6,4 -3,19 8,28 11,9 29,15 29,15 0,0 -20,5 -18,19 3,15 10,23 26,23 15,1 19,-6 22,2 3,8 5,8 5,8 0,0 -16,41 -2,70 13,30 34,30 58,24 25,-6 72,-20 72,-20l13 66c13,96 -52,145 -53,146 38,9 78,13 119,13 120,0 232,-39 322,-106 -9,-4 -78,-64 -81,-67l0 0z"/>
    <path class="fil2" d="M2974 2002c13,21 32,20 54,15 25,-6 72,-20 72,-20l13 66c4,33 0,60 -8,82l0 0c45,-64 12,-114 17,-138 6,-24 101,-48 121,-63 19,-15 34,-57 34,-57 0,0 -20,31 -41,49 -21,18 -185,67 -217,77 -30,10 -44,-9 -45,-11l0 0 0 0z"/>
    <path class="fil2" d="M3083 1324c113,-41 248,-19 329,65 97,99 120,280 -50,471l58 189 -43 -181c0,0 145,-139 129,-317 -17,-178 -196,-290 -378,-242 -16,5 -31,10 -45,15l0 0 0 0z"/>
    <path class="fil3" d="M3272 1704l0 -21 -9 -1c-1,-2 -2,-5 -4,-7l6 -7 -14 -15 -7 6c-3,-1 -5,-2 -8,-3l0 -9 -21 0 -1 9c-3,1 -5,2 -7,3l-7 -6 -15 15 6 7c-1,2 -3,5 -3,7l-9 1 0 20 9 1c0,3 1,6 3,8l-6 7 14 14 7 -5c3,1 5,2 8,3l1 9 20 0 1 -9c3,-1 5,-2 8,-3l6 6 15 -15 -6 -7c2,-2 3,-5 3,-7l10 -1zm-47 9c-11,0 -20,-9 -20,-20 0,-11 9,-20 20,-20 11,0 20,9 20,20 0,11 -9,20 -20,20z"/>
    <path class="fil3" d="M3443 1613l0 -34 -24 -2c-2,-7 -5,-12 -8,-18l16 -19 -24 -24 -19 16c-6,-3 -11,-6 -18,-8l-2 -24 -34 0 -2 24c-6,2 -12,5 -18,8l-19 -16 -24 24 16 19c-3,6 -6,11 -7,18l-25 2 0 34 25 2c1,6 4,12 7,18l-16 19 24 24 19 -16c6,3 12,6 18,7l2 25 34 0 2 -25c7,-1 12,-4 18,-7l19 16 24 -24 -16 -19c3,-6 6,-12 8,-18l24 -2zm-96 41c-32,0 -58,-26 -58,-58 0,-32 26,-58 58,-58 32,0 58,26 58,58 0,32 -26,58 -58,58z"/>
    <path class="fil3 str0" d="M3242 1574l9 -33 -20 -8c1,-8 1,-15 0,-23l20 -8 -9 -33 -21 3c-3,-7 -7,-13 -12,-19l13 -17 -24 -24 -17 13c-6,-4 -13,-8 -19,-11l3 -21 -34 -9 -8 20c-7,-1 -15,-1 -22,0l-8 -20 -33 9 3 21 0 0c-7,4 -13,7 -20,12l-16 -13 -25 24 14 17c-5,6 -8,13 -12,19l-21 -3 -8 34 19 8c0,7 0,15 1,22l-20 8 9 33 21 -3c3,7 7,13 11,20l-13 16 25 25 16 -14c7,5 13,8 20,12l-3 21 33 8 8 -19c8,0 15,0 23,-1l8 20 33 -9 -3 -21c7,-3 13,-7 19,-11l17 13 24 -25 -13 -16c4,-7 8,-13 11,-20l21 3zm-129 25c-42,0 -77,-35 -77,-77 0,-42 35,-76 77,-76 42,0 76,34 76,76 0,42 -34,77 -76,77z"/>
    <path class="fil4 str1" d="M3063 1414l0 0zm136 218l24 -25 -13 -16c4,-7 8,-13 11,-20l21 3 9 -33 -20 -8c1,-8 1,-15 0,-23l20 -8 -9 -33 -21 3c-3,-7 -7,-13 -12,-19l13 -17 -24 -24 -17 13c-6,-4 -13,-8 -19,-11l3 -21 -34 -9 -8 20c-7,-1 -15,-1 -22,0l-8 -20 -33 9 3 21c-7,4 -13,7 -20,12l-16 -13 -25 24 14 17c-5,6 -8,13 -12,19l-21 -3 -8 34 19 8c0,7 0,15 1,22l-20 8 9 33 21 -3c3,7 7,13 11,20l-13 16 25 25 16 -14c7,5 13,8 20,12l-3 21 33 8 8 -19c8,0 15,0 23,-1l8 20 33 -9 -3 -21c7,-3 13,-7 19,-11l17 13zm-86 -33c-42,0 -77,-35 -77,-77 0,-42 35,-76 77,-76 42,0 76,34 76,76 0,42 -34,77 -76,77z"/>
    <path class="fil4 str1" d="M3225 1713c-11,0 -20,-9 -20,-20 0,-11 9,-20 20,-20 11,0 20,9 20,20 0,11 -9,20 -20,20zm-11 -57c-3,1 -5,2 -7,3l-7 -6 -15 15 6 7c-1,2 -3,5 -3,7l-9 1 0 20 9 1c0,3 1,6 3,8l-6 7 14 14 7 -5c3,1 5,2 8,3l1 9 20 0 1 -9c3,-1 5,-2 8,-3l6 6 15 -15 -6 -7c2,-2 3,-5 3,-7l10 -1 0 -21 -9 -1c-1,-2 -2,-5 -4,-7l6 -7 -14 -15 -7 6c-3,-1 -5,-2 -8,-3l0 -9 -21 0 -1 9z"/>
    <path class="fil4 str1" d="M3267 1652l24 24 19 -16c6,3 12,6 18,7l2 25 34 0 2 -25c7,-1 12,-4 18,-7l19 16 24 -24 -16 -19c3,-6 6,-12 8,-18l24 -2 0 -34 -24 -2c-2,-7 -5,-12 -8,-18l16 -19 -24 -24 -19 16c-6,-3 -11,-6 -18,-8l-2 -24 -34 0 -2 24c-6,2 -12,5 -18,8l-19 -16 -24 24 16 19c-3,6 -6,11 -7,18l-25 2 0 34 25 2c1,6 4,12 7,18l-16 19zm80 2c-32,0 -58,-26 -58,-58 0,-32 26,-58 58,-58 32,0 58,26 58,58 0,32 -26,58 -58,58z"/>
   </g>
   <circle class="fil0" cx="1250" cy="1680" r="542"/>
   <path class="fil3" d="M1210 1455c-22,0 -40,-19 -40,-41 0,-22 18,-41 40,-41 22,0 41,19 41,41 0,22 -19,41 -41,41z"/>
   <path class="fil3" d="M1295 1568l-29 -39c-17,-22 16,-46 32,-25l30 40c16,21 -17,46 -33,24z"/>
   <path class="fil5" d="M903 1880l112 -111 33 -98c2,-9 11,-14 20,-14 27,2 13,24 26,37l46 47c6,5 8,13 5,20l-19 60c-4,10 -9,18 -15,24l-122 122c-59,56 -142,-31 -86,-87z"/>
   <path class="fil5" d="M1048 1455c-45,0 -81,-37 -81,-82 0,-44 36,-81 81,-81 45,0 81,37 81,81 0,45 -36,82 -81,82z"/>
   <path class="fil5" d="M1090 1909l32 -129 -57 -57c-8,-8 -14,-19 -16,-31l-41 -205c-5,-26 35,-34 40,-8 1,4 3,8 6,10l81 82c8,8 15,4 18,18l12 61 68 68c15,15 21,37 16,58l-41 162c-18,78 -137,50 -118,-29z"/>
   <path class="fil5" d="M1106 1599l-81 -81c-8,-8 -14,-19 -17,-31 -12,-57 60,-99 103,-55l46 46 80 -54c28,-18 66,-11 85,18 9,12 12,28 9,45 -3,15 -13,30 -26,38l-122 82c-25,17 -58,12 -77,-8z"/>
   <path class="fil3" d="M1571 1584l-41 -41c-12,-13 -34,-4 -34,14l0 102c-23,0 -41,18 -41,41 0,22 18,40 41,40 23,0 40,-21 40,-40l0 -94 6 6c19,19 48,-9 29,-28z"/>
   <path class="fil3" d="M1490 1339l-41 -41c-12,-12 -34,-4 -34,15l0 101c-23,0 -41,18 -41,41 0,22 18,40 41,40 23,0 40,-21 40,-40l0 -93 6 5c19,19 48,-9 29,-28z"/>
   <path class="fil4 str1" d="M1571 1584l-41 -41c-12,-13 -34,-4 -34,14l0 102c-23,0 -41,18 -41,41 0,22 18,40 41,40 23,0 40,-21 40,-40l0 -94 6 6c19,19 48,-9 29,-28z"/>
   <path class="fil4 str1" d="M1415 1495c23,0 40,-21 40,-40l0 -93 6 5c19,19 48,-9 29,-28l-41 -41c-12,-12 -34,-4 -34,15l0 101c-23,0 -41,18 -41,41 0,22 18,40 41,40z"/>
   <path class="fil4 str1" d="M1196 1452l41 -28c5,-3 9,-5 14,-6 0,-2 0,-3 0,-4 0,-22 -19,-41 -41,-41 -22,0 -40,19 -40,41 0,17 10,32 26,38z"/>
   <path class="fil4 str1" d="M1305 1525l-28 19 18 24c16,22 49,-3 33,-24l-17 -23c-2,2 -4,3 -6,4z"/>
   <path class="fil6" d="M931 941l235 -315 -207 -292 96 0 110 155c23,33 39,57 48,74 14,-21 30,-44 49,-67l121 -162 88 0 -211 288 227 319 -99 0 -153 -217c-8,-12 -17,-24 -25,-36 -13,20 -23,34 -29,42l-153 211 -97 0z"/>
   <polygon class="fil7" points="3311,348 3514,348 3365,947 3085,947 2937,348 3139,348 3220,728 3229,728 "/>
  </g>
 </g>
</svg>
