<?xml version="1.0" encoding="UTF-8"?>
<!DOCTYPE svg PUBLIC "-//W3C//DTD SVG 1.1//EN" "http://www.w3.org/Graphics/SVG/1.1/DTD/svg11.dtd">
<!-- Creator: CorelDRAW X7 -->
<svg xmlns="http://www.w3.org/2000/svg" xml:space="preserve" width="512px" height="300px" version="1.1" style="shape-rendering:geometricPrecision; text-rendering:geometricPrecision; image-rendering:optimizeQuality; fill-rule:evenodd; clip-rule:evenodd"
viewBox="0 0 51200 30000"
 xmlns:xlink="http://www.w3.org/1999/xlink">
 <defs>
  <style type="text/css">
   <![CDATA[
    .fil11 {fill:#16397D}
    .fil9 {fill:#496AAC}
    .fil3 {fill:#623F33}
    .fil2 {fill:#734A3E}
    .fil10 {fill:#7D7C85}
    .fil6 {fill:#B97E63}
    .fil5 {fill:#E4B07B}
    .fil1 {fill:#FDC88E}
    .fil8 {fill:#FF8C51}
    .fil7 {fill:#FFA64E}
    .fil0 {fill:#FFD7A3}
    .fil4 {fill:#FFE1B2}
    .fil13 {fill:#99FF00;fill-rule:nonzero}
    .fil12 {fill:red;fill-rule:nonzero}
   ]]>
  </style>
 </defs>
 <g id="Camada_x0020_1">
  <metadata id="CorelCorpID_0Corel-Layer"/>
  <path class="fil0" d="M15207 21358l-376 -3006c-57,-453 -369,-834 -803,-979l-1449 -483c-199,-66 -417,-24 -570,107l-427 -142c-242,-81 -406,-308 -406,-563l0 -958 1279 -532c663,-277 1096,-926 1096,-1644l0 -297c491,0 890,-399 890,-891 0,-243 -98,-464 -256,-624l313 -2505c146,-1169 -399,-2317 -1399,-2941 -481,-300 -1036,-460 -1604,-460 0,0 -4247,1 -4266,2 -622,31 -1160,380 -1454,889l-83 0c-877,0 -1611,745 -1512,1616 1,7 2,13 2,19l423 3380c-158,161 -256,381 -256,624 0,492 399,891 891,891l0 297c0,719 432,1367 1095,1644l1279 532 0 958c0,255 -163,482 -406,563l-427 142c-153,-131 -371,-173 -570,-106l-1449 482c-434,145 -746,526 -803,980l-375 3005c-67,532 348,1001 883,1001l9 0 9839 0 8 0c536,0 950,-469 884,-1001z"/>
  <path class="fil1" d="M7614 16292c0,0 0,0 0,0 0,14 -1,29 -2,43 0,7 -1,15 -2,22 -1,6 -1,12 -2,17 -2,12 -4,23 -6,34 0,1 0,1 0,1 -33,163 -133,305 -275,391 2483,429 3849,-1490 3849,-1490l-3562 0 0 982 0 0z"/>
  <path class="fil2" d="M13099 5900c-481,-300 -1036,-460 -1604,-460l-22 0 0 6233 2671 0 354 -2831c146,-1170 -399,-2317 -1399,-2942z"/>
  <path class="fil3" d="M4180 7947c1,7 2,13 2,19l464 3707 1781 0 0 -5342 -735 0c-877,0 -1611,745 -1512,1616z"/>
  <path class="fil4" d="M13551 11080l0 -594c0,-819 -665,-1484 -1484,-1484l-5343 0c-820,0 -1484,665 -1484,1484l0 594c-492,0 -891,399 -891,890 0,492 399,891 891,891l0 297c0,719 432,1367 1095,1644l1918 799c362,150 750,228 1142,228l0 0c392,0 780,-78 1142,-228l1918 -799c663,-277 1096,-925 1096,-1644l0 -297c491,0 890,-399 890,-891 0,-492 -399,-890 -890,-890z"/>
  <path class="fil3" d="M7317 12267l0 0c-163,0 -297,-133 -297,-297l0 -297c0,-163 134,-296 297,-296l0 0c164,0 297,133 297,296l0 297c0,164 -133,297 -297,297z"/>
  <path class="fil3" d="M11473 12267l0 0c-163,0 -297,-133 -297,-297l0 -297c0,-163 134,-296 297,-296l0 0c163,0 297,133 297,296l0 297c0,164 -134,297 -297,297z"/>
  <path class="fil5" d="M9395 14354c528,0 1022,-130 1354,-357 136,-92 171,-277 79,-412 -92,-136 -277,-171 -412,-79 -234,159 -615,254 -1021,254 -405,0 -787,-95 -1020,-254 -136,-92 -320,-57 -412,79 -93,135 -58,320 78,412 333,227 827,357 1354,357z"/>
  <path class="fil0" d="M12067 9002l-5343 0c-102,0 -201,11 -297,31l0 -1c-678,138 -1188,736 -1188,1454l0 594c-491,0 -890,398 -890,890 0,492 399,891 890,891l0 297c0,719 433,1367 1096,1644l1918 799c94,39 190,73 287,102 -848,-620 -1412,-1162 -1742,-1517 -241,-258 -371,-598 -371,-951l0 -3364c1648,1315 5202,1209 7124,1209l0 -594c0,-819 -665,-1484 -1484,-1484z"/>
  <path class="fil2" d="M11473 5440l-4156 0c-983,0 -1781,797 -1781,1781l0 0c0,1716 1633,2755 2969,3265 0,0 -149,-272 -350,-674 1185,397 3014,674 5507,674 0,0 0,-640 0,-853 0,-4329 -2189,-4193 -2189,-4193z"/>
  <path class="fil2" d="M13562 10782l-1514 0c-1,0 -2,0 -3,0 -170,-94 -365,-147 -572,-147 -548,0 -1009,372 -1146,877 -170,-344 -524,-581 -932,-581 -408,0 -762,237 -932,581 -137,-505 -598,-877 -1146,-877 -207,0 -402,53 -572,147l-1506 0c-82,0 -148,66 -148,148 0,82 66,149 148,149l1153 0c-164,203 -262,462 -262,743 0,655 533,1187 1187,1187 554,0 1021,-381 1151,-895 12,3 24,5 37,5 82,0 148,-67 148,-149 0,-409 333,-742 742,-742 409,0 742,333 742,742 0,82 66,149 148,149 13,0 25,-2 37,-5 130,514 597,895 1151,895 654,0 1187,-532 1187,-1187 0,-281 -98,-540 -262,-743l1164 0c82,0 149,-67 149,-149 0,-82 -67,-148 -149,-148zm-6245 1930c-491,0 -890,-399 -890,-890 0,-491 399,-891 890,-891 491,0 891,400 891,891 0,491 -400,890 -891,890zm4156 0c-491,0 -891,-399 -891,-890 0,-491 400,-891 891,-891 491,0 890,400 890,891 0,491 -399,890 -890,890z"/>
  <path class="fil6" d="M9395 18723c1209,0 2261,-672 2802,-1663l-615 -205c-60,-20 -114,-49 -163,-85 -418,681 -1167,1137 -2024,1137 -857,0 -1606,-456 -2024,-1137 -48,36 -103,65 -163,85l-615 205c541,991 1593,1663 2802,1663z"/>
  <path class="fil7" d="M15207 21358l-376 -3006c-57,-453 -369,-834 -803,-979l-1449 -483c-252,-84 -536,6 -678,231 -527,829 -1451,1379 -2506,1379 -1055,0 -1979,-550 -2506,-1379 -142,-225 -426,-315 -678,-231l-1449 483c-434,145 -746,526 -803,979l-376 3006c-66,532 349,1001 884,1001l9856 0c536,0 950,-469 884,-1001z"/>
  <path class="fil8" d="M4207 17765c-132,167 -220,368 -248,587l-375 3006c-67,532 348,1001 883,1001l1663 0 0 -1932c0,-285 -103,-561 -290,-777l-1633 -1885z"/>
  <path class="fil8" d="M14583 17765c132,167 220,368 248,587l376 3006c66,532 -349,1001 -884,1001l-1663 0 0 -1932c0,-285 103,-561 290,-777l1633 -1885z"/>
  <g id="_686980472">
   <path class="fil9" d="M36197 12006c93,-143 264,-149 384,-153 176,-7 152,-64 518,-6 131,21 219,-10 359,25 350,88 739,226 1045,441 282,197 463,639 518,968 44,262 149,1167 -162,1263l-1670 -1558c-112,-101 -220,-238 -333,-333 -144,-122 -593,-507 -659,-647zm3379 3586c43,-79 176,-238 239,-327 131,-184 278,-573 332,-792 28,-112 69,-428 97,-492l0 -580c-62,-115 -62,-312 -99,-451 -36,-136 -77,-255 -126,-386 -95,-254 -236,-450 -352,-686 -78,-63 -136,-183 -202,-272 -192,-260 -518,-454 -809,-599 -899,-450 -2165,-463 -3066,8 -98,51 -193,117 -271,191 -192,182 -532,245 -815,618 46,150 739,749 892,931 264,314 594,643 884,935l883 936c145,172 281,297 437,460 80,84 128,156 217,244 72,72 169,154 224,237 -150,229 -881,184 -1205,180 -110,-1 -281,-46 -389,-72 -434,-105 -554,-274 -751,-401 -172,-110 -88,45 -345,-348 -195,0 -919,245 -1178,308l457 593c423,560 623,591 1225,876 276,130 1066,252 1339,220 151,-18 321,-40 469,-69 271,-53 516,-153 771,-279 559,-279 786,-731 1142,-983z"/>
   <path class="fil9" d="M44548 20818c-62,6 -615,226 -709,265 -660,270 -1806,427 -2544,427 -874,0 -1764,-122 -2578,-394 -621,-207 -807,-302 -1385,-588 -496,-246 -1358,-864 -1744,-1253 -882,-889 -1552,-1742 -2020,-2925 -427,-1082 -412,-1251 -594,-2402 -12,-77 0,-152 -5,-226l-26 -717c0,-312 52,-620 78,-922 10,-125 49,-290 70,-416 250,-1484 952,-2868 1934,-4035 71,-85 173,-158 239,-247 370,-502 1649,-1347 1650,-1348 -317,87 -1086,553 -1394,758 -420,280 -850,628 -1200,978 -717,717 -1391,1696 -1739,2590 -270,694 -347,907 -498,1653 -88,434 -210,1555 -123,2024 31,170 34,562 114,961 201,1004 363,1496 835,2445 226,453 538,885 850,1302 476,636 1012,1126 1648,1605 1091,822 2500,1413 3862,1569 53,6 166,24 222,34 263,47 1048,41 1317,41l514 -49c869,-102 2617,-593 3226,-1130zm26 0c2,-2 -8,-10 -8,-7 0,1 -3,-3 -3,-3 1,1 -24,45 11,10z"/>
   <path class="fil10" d="M34198 9752l636 -774c58,-74 171,-174 242,-245 619,-619 1465,-1183 2265,-1526 195,-83 487,-209 684,-264 669,-186 758,-190 1363,-302l446 -41c274,1 648,-55 921,-23 83,9 95,25 206,24 278,-1 997,140 1256,205 2806,699 4967,3024 5539,5885 83,412 174,1322 121,1773l-101 847c-145,957 -589,1908 -1077,2740 -67,115 -364,517 -383,590 593,-393 1405,-1784 1690,-2485 270,-663 429,-1356 511,-2077 86,-746 -5,-1664 -158,-2400 -589,-2855 -2955,-5136 -5773,-5755 -800,-175 -1347,-183 -2163,-170l-706 88c-1278,228 -2579,751 -3604,1623 -380,323 -765,633 -1074,1026 -184,235 -780,1007 -841,1261z"/>
   <path class="fil11" d="M43190 8394c23,23 85,-32 31,-15 0,1 -66,-20 -31,15zm-4893 11656c157,138 977,346 1230,410 732,183 1139,177 1870,179 156,1 239,-20 385,-25l707 -113c441,-97 838,-243 1247,-417 713,-302 1394,-809 1933,-1347 851,-851 1490,-2034 1725,-3219 162,-818 171,-1436 13,-2221 -118,-592 -388,-1293 -656,-1829 -418,-836 -1134,-1670 -1874,-2224 -169,-127 -314,-218 -487,-333 -218,-144 -921,-498 -1149,-517 27,24 7,13 43,34 25,15 43,20 69,34l791 515c127,110 297,219 411,332 695,690 1181,1218 1599,2193 163,381 286,715 377,1108 42,179 97,450 116,627 121,1135 -5,2206 -434,3252 -543,1325 -1631,2494 -2895,3125 -1369,685 -2175,740 -3561,693 -438,-15 -1327,-254 -1460,-257zm-128 -51c61,54 42,43 128,51 -56,-50 -37,-43 -128,-51zm0 -26l-77 0 0 26 77 0 0 -26zm-77 -26c-23,-23 -84,32 -31,15 1,0 66,21 31,-15z"/>
   <path class="fil10" d="M39576 15592c119,80 165,349 470,583 739,566 1535,786 2453,724 578,-39 1050,-307 1481,-645 149,-118 148,-146 266,-272 104,-110 193,-109 292,-246 79,-108 394,-559 420,-656 -85,-75 -1122,-333 -1179,-333 -55,111 -86,131 -127,257 -58,179 -477,453 -631,548 -362,223 -938,237 -1337,138 -377,-94 -674,-371 -934,-629 -351,-350 -391,-629 -506,-1080 -28,64 -69,380 -97,492 -54,219 -201,608 -332,792 -63,89 -196,248 -239,327z"/>
   <path class="fil10" d="M39667 11878c116,236 257,432 352,686 49,131 90,250 126,386 37,139 37,336 99,451 118,-240 104,-1110 1226,-1476 317,-104 910,-107 1239,-27 386,94 582,263 926,432 46,140 16,156 111,273l59 69 1138 -476c3,-2 10,-7 15,-11 -29,-107 -380,-418 -481,-519 -201,-201 -336,-272 -570,-429 -350,-235 -618,-352 -1014,-471 -666,-199 -1545,-111 -2170,156 -321,136 -979,626 -1056,956z"/>
  </g>
  <g>
   <path class="fil12" d="M21200 23055l0 -19763 300 0 0 19763 -300 0zm150 2437l-1286 -2571 2571 0 -1285 2571z"/>
  </g>
  <g>
   <path class="fil13" d="M28300 5771l0 19763 -300 0 0 -19763 300 0zm-150 -2437l1286 2571 -2571 0 1285 -2571z"/>
  </g>
 </g>
</svg>
