<?xml version="1.0" encoding="iso-8859-1"?>
<!-- Generator: Adobe Illustrator 19.0.0, SVG Export Plug-In . SVG Version: 6.00 Build 0)  -->
<svg version="1.1" id="Capa_1" xmlns="http://www.w3.org/2000/svg" xmlns:xlink="http://www.w3.org/1999/xlink" x="0px" y="0px"
	 viewBox="0 0 512.001 512.001" style="enable-background:new 0 0 512.001 512.001;" xml:space="preserve">
<path style="fill:#0088FF;" d="M240.646,120.001c-16.538,0-30-13.462-30-30s13.462-30,30-30s30,13.462,30,30
	S257.184,120.001,240.646,120.001z"/>
<path style="fill:#4B5BE4;" d="M303.649,203.995l-21.973-29.297c-11.916-15.841,12.151-33.884,23.994-17.988l21.973,29.297
	C339.496,201.765,315.549,219.921,303.649,203.995z"/>
<g>
	<path style="fill:#ED2500;" d="M13.741,434.643l82.69-82.412l24.082-72.231c2.153-6.46,8.262-10.313,15.205-10.225
		c20.214,1.348,9.397,17.63,19.233,27.466l34.204,34.204c3.999,3.999,5.405,9.888,3.647,15.264l-14.399,44.092
		c-2.52,7.061-6.226,13.037-10.854,17.651l-90,90C33.626,540.158-27.676,476.06,13.741,434.643z"/>
	<path style="fill:#ED2500;" d="M120.646,120.001c-33.091,0-60-26.909-60-60s26.909-60,60-60s60,26.909,60,60
		S153.736,120.001,120.646,120.001z"/>
</g>
<path style="fill:#FF4F19;" d="M151.993,455.766l23.745-95.317l-41.997-41.998c-6.108-6.108-10.312-13.989-12.173-22.808
	L91.539,143.951c-3.902-19.404,25.341-25.245,29.385-6.035c0.659,3.105,2.051,5.801,4.028,7.778l60,60
	c5.927,5.927,11.219,3.091,13.403,13.945l8.701,44.773l50.463,50.2c11.25,11.25,15.733,27.656,11.749,42.861l-29.985,119.912
	C225.657,534.609,137.592,514.026,151.993,455.766z"/>
<path style="fill:#ED2500;" d="M163.741,226.905l-60-60c-6.108-6.108-10.313-13.989-12.173-22.808
	c-9.443-42.384,43.929-73.054,75.981-41.001l33.926,33.926l59.385-39.419c20.009-13.859,48.619-8.199,62.256,12.715
	c6.548,9.478,8.979,21.401,6.65,33.252c-2.314,11.763-9.346,22.251-19.292,28.799l-90.029,60.029
	C202.192,244.933,178,241.164,163.741,226.905z"/>
<g>
	<path style="fill:#51DAE6;" d="M507.395,215.404l-30-30c-9.365-9.397-25.605-2.771-25.605,10.605v75c-16.538,0-30,13.462-30,30
		s13.462,30,30,30c17.504,0,30-15.549,30-30v-68.788l4.395,4.395C500.129,250.561,521.455,229.464,507.395,215.404z"/>
	<path style="fill:#51DAE6;" d="M447.395,34.398l-30-30c-9.323-9.355-25.605-2.832-25.605,10.605v75c-16.538,0-30,13.462-30,30
		s13.462,30,30,30c17.504,0,30-15.549,30-30V51.215l4.395,4.395C440.129,69.555,461.455,48.458,447.395,34.398z"/>
</g>
<g>
</g>
<g>
</g>
<g>
</g>
<g>
</g>
<g>
</g>
<g>
</g>
<g>
</g>
<g>
</g>
<g>
</g>
<g>
</g>
<g>
</g>
<g>
</g>
<g>
</g>
<g>
</g>
<g>
</g>
</svg>
