<?xml version="1.0" encoding="UTF-8"?>
<!DOCTYPE svg PUBLIC "-//W3C//DTD SVG 1.1//EN" "http://www.w3.org/Graphics/SVG/1.1/DTD/svg11.dtd">
<!-- Creator: CorelDRAW X7 -->
<svg xmlns="http://www.w3.org/2000/svg" xml:space="preserve" width="130px" height="130px" version="1.1" style="shape-rendering:geometricPrecision; text-rendering:geometricPrecision; image-rendering:optimizeQuality; fill-rule:evenodd; clip-rule:evenodd"
viewBox="0 0 130 130"
 xmlns:xlink="http://www.w3.org/1999/xlink">
 <defs>
  <style type="text/css">
   <![CDATA[
    .str1 {stroke:#266FB7;stroke-width:2.36222}
    .str0 {stroke:#266FB7;stroke-width:0.900005}
    .fil11 {fill:#1D6FB7}
    .fil10 {fill:#25B7D3}
    .fil12 {fill:#266FB7}
    .fil0 {fill:#266FB7}
    .fil2 {fill:#344A5E}
    .fil9 {fill:#415A6B}
    .fil3 {fill:#CED6E0}
    .fil4 {fill:#F05540}
    .fil5 {fill:#F3705A}
    .fil8 {fill:#F3F3F3}
    .fil6 {fill:#F7B64C}
    .fil7 {fill:#FFD15C}
    .fil1 {fill:white}
   ]]>
  </style>
 </defs>
 <g id="Camada_x0020_1">
  <metadata id="CorelCorpID_0Corel-Layer"/>
  <g id="_426841600">
   <path class="fil0 str0" d="M297 248c-2,6 -4,11 -7,16l8 13 -11 10 -12 -8c-5,4 -10,6 -17,7l-2 14 -16 0 -2 -14c-7,-1 -12,-3 -17,-7l-12 8 -11 -10 8 -13c-3,-5 -6,-10 -7,-16l-14 -3 0 -15 14 -3c2,-6 4,-12 7,-17l-8 -12 11 -10 12 8c5,-4 10,-6 17,-7l2 -14 16 0 2 14c7,1 12,3 17,7l12 -8 11 10 -8 12c3,5 5,11 7,17l14 3 0 15 -14 3z"/>
   <circle class="fil1" cx="248" cy="237" r="36"/>
   <g>
    <path class="fil1" d="M248 201c20,0 36,16 36,36l-36 -36zm0 0l0 0 0 0z"/>
   </g>
   <path class="fil2" d="M274 260c0,-4 -3,-7 -7,-8l-19 -5 -19 5c-4,1 -7,4 -7,8l-1 2c7,7 17,12 27,12 11,0 20,-5 27,-12l-1 -2z"/>
   <polygon class="fil3" points="253,270 255,245 241,245 243,270 "/>
   <polygon class="fil4" points="250,257 252,254 248,250 244,254 246,257 "/>
   <path class="fil5" d="M244 274c1,0 3,0 4,0 2,0 3,0 4,0l-2 -17 -4 0 -2 17z"/>
   <polygon class="fil6" points="248,250 248,250 254,244 254,238 242,238 242,244 "/>
   <path class="fil7" d="M262 230c0,2 -2,4 -3,4 -2,-1 -2,-3 -2,-5 1,-2 2,-3 4,-3 1,0 2,2 1,4z"/>
   <path class="fil7" d="M234 230c0,2 2,4 3,4 2,-1 2,-3 2,-5 -1,-2 -2,-3 -4,-3 -1,0 -2,2 -1,4z"/>
   <path class="fil7" d="M248 214c-3,0 -5,1 -7,3 -1,0 -1,0 -1,0 -1,0 -2,1 -2,1 -2,1 -2,3 -1,5 -1,2 -1,4 -1,6 0,8 5,15 12,15 7,0 12,-7 12,-15 0,-8 -5,-15 -12,-15z"/>
   <polygon class="fil8" points="256,247 253,256 248,250 254,244 "/>
   <polygon class="fil8" points="240,247 243,256 248,250 242,244 "/>
   <path class="fil9" d="M257 223c-1,0 -3,0 -5,0 -3,1 -6,1 -8,1 -2,-1 -4,-4 -3,-6 -2,2 -2,5 0,7 -2,-1 -3,-4 -3,-6 -2,4 -3,10 -1,15 -1,-3 -2,-7 -2,-11 0,-4 1,-9 3,-12 1,-2 2,-2 4,-2l1 0c0,0 -2,-1 -3,0 1,-1 2,-1 3,0 0,0 0,-1 1,-1 0,-1 1,-1 2,-1 1,0 2,0 2,0 11,0 13,7 13,16 0,4 0,9 -1,11 1,-5 -1,-10 -3,-11z"/>
   <path class="fil9" d="M241 245l-10 13 8 3 -6 4 5 7c2,1 5,2 7,2l-4 -29z"/>
   <path class="fil9" d="M255 245l-4 29c2,0 5,-1 7,-2l5 -7 -6 -4 8 -3 -10 -13z"/>
  </g>
  <g>
   <path class="fil10" d="M43 270c0,-35 -28,-63 -63,-63 -35,0 -63,28 -63,63 0,35 28,63 63,63 35,0 63,-28 63,-63z"/>
   <path class="fil1" d="M-48 251c0,-3 1,-7 4,-11 2,-3 5,-6 9,-9 5,-2 10,-3 16,-3 5,0 10,1 14,3 4,2 7,5 9,8 3,3 4,7 4,11 0,3 -1,6 -2,8 -1,3 -3,5 -5,7 -1,1 -5,4 -9,8 -1,1 -2,2 -3,3 -1,1 -2,2 -2,3 0,0 -1,1 -1,2 0,1 0,2 -1,4 0,3 -3,5 -6,5 -2,0 -4,0 -5,-1 -1,-2 -2,-4 -2,-6 0,-3 0,-6 1,-8 1,-2 3,-4 4,-6 2,-2 4,-4 7,-6 2,-2 4,-4 5,-5 1,-1 2,-2 2,-4 1,-1 2,-2 2,-4 0,-3 -2,-5 -4,-7 -2,-2 -5,-3 -8,-3 -4,0 -7,1 -9,3 -2,2 -4,5 -5,9 -1,4 -4,6 -7,6 -2,0 -4,-1 -6,-2 -1,-2 -2,-3 -2,-5zm27 61c-2,0 -4,-1 -6,-2 -1,-2 -2,-4 -2,-6 0,-3 1,-5 2,-6 2,-2 4,-3 6,-3 3,0 5,1 6,3 2,1 3,3 3,6 0,2 -1,4 -3,6 -2,1 -3,2 -6,2z"/>
   <g id="_426838960">
   </g>
   <g id="_426838744">
   </g>
   <g id="_426838720">
   </g>
   <g id="_426839200">
   </g>
   <g id="_426838168">
   </g>
   <g id="_426838072">
   </g>
   <g id="_426838048">
   </g>
   <g id="_426838024">
   </g>
   <g id="_426838216">
   </g>
   <g id="_426837424">
   </g>
   <g id="_426837208">
   </g>
   <g id="_426837568">
   </g>
   <g id="_426837256">
   </g>
   <g id="_426836464">
   </g>
   <g id="_426836728">
   </g>
  </g>
  <path class="fil8" d="M67 99l0 -13 -4 0 0 13c-3,0 -5,3 -5,6 0,4 3,8 7,8 4,0 7,-4 7,-8 0,-3 -2,-5 -5,-6zm-2 9c-2,0 -3,-1 -3,-2 0,-2 2,-3 3,-3 1,0 3,1 3,3 0,1 -1,2 -3,2z"/>
  <rect class="fil8" x="10" y="15" width="113.507" height="65.3528"/>
  <path class="fil7" d="M122 15l-114 0c-4,0 -7,-3 -7,-7l0 0c0,-4 3,-7 7,-7l114 0c4,0 7,3 7,7l0 0c0,4 -3,7 -7,7z"/>
  <path class="fil7" d="M122 94l-114 0c-4,0 -7,-3 -7,-7l0 0c0,-4 3,-7 7,-7l114 0c3,0 6,3 6,7l0 0c1,4 -2,7 -6,7z"/>
  <path class="fil5" d="M38 28c-10,0 -18,8 -18,18 0,9 8,18 18,18 5,0 10,-2 13,-6l-13 -12 0 -18 0 0z"/>
  <path class="fil7" d="M43 45l13 13c3,-3 5,-8 5,-13l-18 0 0 0z"/>
  <path class="fil11 str0" d="M61 41c0,-10 -8,-18 -18,-18l0 18 18 0z"/>
  <rect class="fil3" x="74" y="26" width="35.4543" height="5.02741"/>
  <rect class="fil3" x="74" y="40" width="35.4543" height="5.02741"/>
  <rect class="fil3" x="74" y="55" width="35.4543" height="5.02741"/>
  <polygon class="fil6" points="25,94 25,107 32,113 40,107 40,94 "/>
  <path class="fil9" d="M44 94c-6,11 -17,11 -23,0 -3,-6 -8,-26 12,-26 20,0 15,20 11,26z"/>
  <ellipse class="fil0" cx="32" cy="104" rx="11" ry="4"/>
  <path class="fil11" d="M64 129l-5 -17c-1,-3 -3,-5 -5,-6 -6,-1 -16,-3 -22,-3 -5,0 -15,2 -21,3 -2,1 -5,3 -5,6l-5 17 63 0z"/>
  <polygon class="fil6" points="90,94 90,107 98,113 105,107 105,94 "/>
  <path class="fil9" d="M109 94c-6,11 -18,11 -23,0 -4,-6 -8,-26 12,-26 19,0 14,20 11,26z"/>
  <ellipse class="fil0" cx="98" cy="104" rx="11" ry="4"/>
  <path class="fil0" d="M129 129l-5 -17c-1,-3 -3,-5 -6,-6 -5,-1 -15,-3 -21,-3 -5,0 -15,2 -21,3 -3,1 -5,3 -5,6l-5 17 63 0z"/>
  <path class="fil12 str1" d="M-15 298c2,1 3,3 3,6 0,2 -1,4 -3,6 -2,1 -3,2 -6,2 -2,0 -4,-1 -6,-2 -1,-2 -2,-4 -2,-6 0,-3 1,-5 2,-6 2,-2 4,-3 6,-3 3,0 5,1 6,3zm-68 -28c0,35 28,63 63,63 35,0 63,-28 63,-63 0,-35 -28,-63 -63,-63 -35,0 -63,28 -63,63zm84 -5c-1,1 -5,4 -9,8 -1,1 -2,2 -3,3 -1,1 -2,2 -2,3 0,0 -1,1 -1,2 0,1 0,2 -1,4 0,3 -3,5 -6,5 -2,0 -4,0 -5,-1 -1,-2 -2,-4 -2,-6 0,-3 0,-6 1,-8 1,-2 3,-4 4,-6 2,-2 4,-4 7,-6 2,-2 4,-4 5,-5 1,-1 2,-2 2,-4 1,-1 2,-2 2,-4 0,-3 -2,-5 -4,-7 -2,-2 -5,-3 -8,-3 -4,0 -7,1 -9,3 -2,2 -4,5 -5,9 -1,4 -4,6 -7,6 -2,0 -4,-1 -6,-2 -1,-2 -2,-3 -2,-5 0,-3 1,-7 4,-11 2,-3 5,-6 9,-9 5,-2 10,-3 16,-3 5,0 10,1 14,3 4,2 7,5 9,8 3,3 4,7 4,11 0,3 -1,6 -2,8 -1,3 -3,5 -5,7z"/>
 </g>
</svg>
