<?xml version="1.0" encoding="UTF-8"?>
<!DOCTYPE svg PUBLIC "-//W3C//DTD SVG 1.1//EN" "http://www.w3.org/Graphics/SVG/1.1/DTD/svg11.dtd">
<!-- Creator: CorelDRAW X7 -->
<svg xmlns="http://www.w3.org/2000/svg" xml:space="preserve" width="258px" height="258px" version="1.1" style="shape-rendering:geometricPrecision; text-rendering:geometricPrecision; image-rendering:optimizeQuality; fill-rule:evenodd; clip-rule:evenodd"
viewBox="0 0 258 258"
 xmlns:xlink="http://www.w3.org/1999/xlink">
 <defs>
  <style type="text/css">
   <![CDATA[
    .str0 {stroke:#266FB7;stroke-width:0.900008}
    .fil10 {fill:#25B7D3}
    .fil0 {fill:#266FB7}
    .fil2 {fill:#344A5E}
    .fil9 {fill:#415A6B}
    .fil12 {fill:#4ABAA5}
    .fil11 {fill:#66C6B9}
    .fil3 {fill:#CED6E0}
    .fil4 {fill:#F05540}
    .fil5 {fill:#F3705A}
    .fil8 {fill:#F3F3F3}
    .fil6 {fill:#F7B64C}
    .fil7 {fill:#FFD15C}
    .fil1 {fill:white}
   ]]>
  </style>
 </defs>
 <g id="Camada_x0020_1">
  <metadata id="CorelCorpID_0Corel-Layer"/>
  <path class="fil0 str0" d="M228 150c-2,13 -7,24 -14,34l16 24 -22 22 -24 -16c-10,7 -21,12 -34,14l-6 29 -31 0 -5 -29c-13,-2 -24,-7 -34,-14l-24 16 -23 -22 16 -24c-6,-10 -11,-21 -14,-34l-28 -6 0 -31 29 -5c2,-13 7,-24 14,-34l-16 -24 22 -22 24 16c10,-7 21,-12 34,-14l6 -29 31 0 5 29c13,2 24,7 34,14l24 -16 22 22 -16 24c7,10 12,21 14,34l29 6 0 31 -29 5z"/>
  <circle class="fil1" cx="129" cy="129" r="74"/>
  <g>
   <path class="fil1" d="M129 55c41,0 74,33 74,74l-74 -74zm0 0l0 0 0 0z"/>
  </g>
  <path class="fil2" d="M183 174c-2,-8 -8,-14 -15,-16l-39 -10 -38 10c-8,2 -14,8 -15,16l-1 5c13,15 33,24 54,24 22,0 41,-9 55,-24l-1 -5z"/>
  <polygon class="fil3" points="139,196 143,145 115,145 119,196 "/>
  <polygon class="fil4" points="133,168 138,163 129,154 120,163 125,168 "/>
  <path class="fil5" d="M120 203c3,0 6,0 9,0 3,0 6,0 9,0l-5 -35 -8 0 -5 35z"/>
  <polygon class="fil6" points="129,154 129,154 142,142 142,130 116,130 116,142 "/>
  <path class="fil7" d="M158 115c-1,4 -4,7 -7,6 -3,-1 -4,-5 -3,-9 1,-4 4,-7 7,-6 3,1 4,4 3,9z"/>
  <path class="fil7" d="M100 115c1,4 4,7 7,6 3,-1 4,-5 3,-9 -1,-4 -4,-7 -7,-6 -3,1 -4,4 -3,9z"/>
  <path class="fil7" d="M129 82c-5,0 -11,2 -15,5 0,0 0,0 -1,0 -2,0 -4,1 -5,3 -4,2 -4,6 -2,9 -2,4 -2,8 -2,13 0,17 11,30 25,30 14,0 25,-14 25,-30 0,-17 -11,-30 -25,-30z"/>
  <polygon class="fil8" points="146,149 139,166 129,154 142,142 "/>
  <polygon class="fil8" points="112,149 119,166 129,154 116,142 "/>
  <path class="fil9" d="M148 100c-4,-1 -8,-1 -12,0 -4,2 -10,2 -15,1 -5,-2 -9,-7 -7,-12 -4,4 -4,11 0,14 -4,-2 -6,-7 -5,-11 -4,7 -6,20 -3,30 -2,-6 -4,-13 -3,-22 0,-9 1,-18 5,-25 2,-3 6,-5 9,-4l1 0c0,-1 -2,-1 -4,-1 1,0 3,-1 5,0 0,0 0,0 1,-1 2,-1 4,-2 6,-2 1,0 2,0 4,0 21,0 26,15 26,33 0,8 -1,17 -4,23 3,-11 0,-22 -4,-23z"/>
  <path class="fil9" d="M115 145l-21 26 16 6 -11 7 9 16c5,2 10,3 16,3l-9 -58z"/>
  <path class="fil9" d="M143 145l-9 58c6,0 12,-1 16,-3l9 -16 -11 -7 16 -6 -21 -26z"/>
  <g>
   <path class="fil10" d="M919 109c0,-71 -57,-128 -128,-128 -71,0 -128,57 -128,128 0,71 57,128 128,128 71,0 128,-57 128,-128z"/>
   <path class="fil1" d="M734 71c0,-8 3,-15 7,-22 5,-8 12,-14 21,-19 8,-4 19,-7 30,-7 11,0 21,2 30,6 8,4 14,10 19,17 5,7 7,14 7,22 0,7 -1,12 -4,17 -3,5 -6,9 -9,13 -4,3 -10,9 -20,18 -2,2 -4,4 -6,6 -1,1 -3,3 -3,5 -1,1 -2,3 -2,4 -1,1 -1,4 -2,8 -1,8 -6,12 -13,12 -4,0 -8,-2 -10,-4 -3,-3 -4,-7 -4,-12 0,-6 1,-12 3,-16 1,-5 4,-9 7,-12 4,-4 8,-8 13,-13 5,-4 9,-7 11,-10 2,-2 4,-4 5,-7 2,-2 3,-5 3,-8 0,-6 -3,-12 -7,-16 -5,-4 -10,-6 -18,-6 -8,0 -14,2 -18,6 -4,5 -7,11 -10,19 -2,8 -7,13 -14,13 -5,0 -8,-2 -11,-5 -3,-3 -5,-6 -5,-9zm56 124c-5,0 -9,-2 -12,-5 -4,-3 -5,-7 -5,-12 0,-5 1,-9 5,-12 3,-4 7,-5 12,-5 5,0 9,1 12,5 3,3 5,7 5,12 0,5 -2,9 -5,12 -4,3 -8,5 -12,5z"/>
   <g id="_422993144">
   </g>
   <g id="_422993792">
   </g>
   <g id="_422992784">
   </g>
   <g id="_422992928">
   </g>
   <g id="_422992448">
   </g>
   <g id="_422992424">
   </g>
   <g id="_422991728">
   </g>
   <g id="_422991992">
   </g>
   <g id="_422991584">
   </g>
   <g id="_422991848">
   </g>
   <g id="_422992160">
   </g>
   <g id="_422990984">
   </g>
   <g id="_422990912">
   </g>
   <g id="_422991536">
   </g>
   <g id="_422991152">
   </g>
  </g>
  <g>
   <g id="_422990384">
    <path class="fil8" d="M-320 195l0 -25 -9 0 0 25c-6,1 -11,7 -11,14 0,8 7,14 15,14 8,0 14,-6 14,-14 1,-7 -3,-12 -9,-14zm-5 19c-3,0 -5,-2 -5,-5 0,-3 3,-5 5,-5 3,0 6,2 6,5 0,3 -2,5 -6,5z"/>
    <rect class="fil8" x="-436" y="26" width="229" height="132"/>
   </g>
   <g id="_422990552">
    <path class="fil7" d="M-210 26l-229 0c-8,0 -14,-6 -14,-14l0 0c0,-7 6,-13 14,-13l229 0c8,0 13,6 13,13l0 0c0,8 -5,14 -13,14z"/>
    <path class="fil7" d="M-210 185l-229 0c-8,0 -14,-6 -14,-14l0 0c0,-7 6,-13 14,-13l229 0c7,0 13,6 13,13l0 0c0,8 -5,14 -13,14z"/>
   </g>
   <path class="fil5" d="M-378 52c-20,0 -37,16 -37,36 0,20 16,36 37,36 10,0 19,-4 25,-10l-25 -26 0 -36 0 0z"/>
   <path class="fil7" d="M-369 88l26 25c6,-6 10,-15 10,-25l-36 0 0 0z"/>
   <path class="fil11" d="M-333 78c0,-20 -16,-36 -36,-36l0 36 36 0z"/>
   <g id="_422989496">
    <rect class="fil3" x="-306" y="49" width="71.4668" height="10.134"/>
    <rect class="fil3" x="-306" y="77" width="71.4668" height="10.134"/>
    <rect class="fil3" x="-306" y="106" width="71.4668" height="10.134"/>
   </g>
   <polygon class="fil6" points="-405,186 -405,211 -390,223 -375,211 -375,186 "/>
   <path class="fil9" d="M-367 186c-11,21 -35,21 -46,0 -7,-13 -17,-53 23,-53 40,0 30,40 23,53z"/>
   <ellipse class="fil12" cx="-390" cy="206" rx="23" ry="9"/>
   <path class="fil11" d="M-327 255l-9 -34c-2,-5 -6,-10 -12,-11 -11,-3 -32,-7 -42,-7 -11,0 -31,5 -43,7 -5,1 -10,5 -11,11l-9 34 126 0z"/>
   <polygon class="fil6" points="-274,186 -274,211 -259,223 -244,211 -244,186 "/>
   <path class="fil9" d="M-236 186c-12,21 -35,21 -46,0 -7,-13 -17,-53 23,-53 40,0 30,40 23,53z"/>
   <ellipse class="fil12" cx="-259" cy="206" rx="23" ry="9"/>
   <path class="fil11" d="M-197 255l-9 -34c-1,-5 -6,-10 -11,-11 -12,-3 -32,-7 -43,-7 -10,0 -30,5 -42,7 -6,1 -10,5 -11,11l-9 34 125 0z"/>
   <g id="_422987816">
   </g>
   <g id="_422987912">
   </g>
   <g id="_422988272">
   </g>
   <g id="_423019976">
   </g>
   <g id="_423020000">
   </g>
   <g id="_423019832">
   </g>
   <g id="_423019352">
   </g>
   <g id="_423019256">
   </g>
   <g id="_423019208">
   </g>
   <g id="_423018800">
   </g>
   <g id="_423019016">
   </g>
   <g id="_423018752">
   </g>
   <g id="_423018560">
   </g>
   <g id="_423018536">
   </g>
   <g id="_423012440">
   </g>
  </g>
 </g>
</svg>
