<?xml version="1.0" encoding="UTF-8"?>
<!DOCTYPE svg PUBLIC "-//W3C//DTD SVG 1.1//EN" "http://www.w3.org/Graphics/SVG/1.1/DTD/svg11.dtd">
<!-- Creator: CorelDRAW X7 -->
<svg xmlns="http://www.w3.org/2000/svg" xml:space="preserve" width="53.4mm" height="52.3mm" version="1.1" style="shape-rendering:geometricPrecision; text-rendering:geometricPrecision; image-rendering:optimizeQuality; fill-rule:evenodd; clip-rule:evenodd"
viewBox="0 0 53 52"
 xmlns:xlink="http://www.w3.org/1999/xlink">
 <defs>
  <style type="text/css">
   <![CDATA[
    .fil0 {fill:#266FB7}
    .fil2 {fill:#2B3E84}
    .fil1 {fill:#797984}
    .fil3 {fill:#F1F1F2}
   ]]>
  </style>
 </defs>
 <g id="Camada_x0020_1">
  <metadata id="CorelCorpID_0Corel-Layer"/>
  <path class="fil0" d="M25 31c1,-1 1,-2 2,-4l0 -3c-1,-1 -1,-1 -1,-2 0,-1 -1,-1 -1,-2 -2,-2 -3,-4 -8,-4 -4,0 -7,2 -8,4 1,2 4,4 6,6 1,1 3,3 5,5 -4,2 -7,1 -9,-2l-3 1c2,5 10,9 17,1z"/>
  <path class="fil0" d="M12 3c-1,1 -2,2 -3,3 -2,1 -2,2 -3,3 -16,21 5,49 29,42 0,0 7,-3 4,-2 -1,0 -8,3 -16,0 -19,-6 -25,-28 -13,-43 1,-1 3,-3 4,-4l-2 1z"/>
  <path class="fil1" d="M9 12c2,-2 4,-4 6,-5l2 -1c0,-1 1,-1 1,-1 14,-6 31,3 33,18 1,8 -1,11 -3,17 0,-1 1,-1 1,-2 4,-6 5,-11 4,-19 -3,-13 -17,-22 -31,-18 -4,2 -11,6 -13,11z"/>
  <path class="fil2" d="M22 46c1,1 6,2 8,2 13,0 24,-15 18,-28 -1,-4 -6,-9 -10,-10l2 1c7,6 9,16 5,24 -2,4 -5,7 -9,9 -4,3 -8,3 -14,2z"/>
  <path class="fil1" d="M25 31c3,5 11,7 17,-1 -1,0 -3,-1 -4,-1 0,0 -5,6 -9,1l-2 -2c0,-1 0,0 0,0l0 -1c-1,2 -1,3 -2,4z"/>
  <path class="fil1" d="M25 20c0,1 1,1 1,2 0,1 0,1 1,2 0,0 1,-4 5,-4 4,-1 4,1 7,2 0,0 1,0 1,0 0,0 1,0 1,-1 1,0 0,0 1,0 -2,-2 -3,-5 -8,-5 -4,0 -7,2 -9,4z"/>
  <path class="fil3" d="M14 20c1,1 5,4 6,6 1,1 2,2 3,2 1,-3 -1,-10 -9,-8z"/>
  <polygon class="fil3" points="19,23 19,21 17,21 17,23 "/>
  <polygon class="fil3" points="21,24 21,23 19,23 19,24 "/>
  <path class="fil3" d="M21 24c0,1 0,2 0,2 2,0 1,1 2,-1 -1,-1 -1,-1 -2,-1z"/>
 </g>
</svg>
