<?xml version="1.0" encoding="UTF-8"?>
<!DOCTYPE svg PUBLIC "-//W3C//DTD SVG 1.1//EN" "http://www.w3.org/Graphics/SVG/1.1/DTD/svg11.dtd">
<!-- Creator: CorelDRAW X7 -->
<svg xmlns="http://www.w3.org/2000/svg" xml:space="preserve" width="104.3mm" height="99.5mm" version="1.1" style="shape-rendering:geometricPrecision; text-rendering:geometricPrecision; image-rendering:optimizeQuality; fill-rule:evenodd; clip-rule:evenodd"
viewBox="0 0 10430 9950"
 xmlns:xlink="http://www.w3.org/1999/xlink"
 display="inline"
 version="1.1"
 xmlns:x="&ns_extend;"
 xmlns:i="&ns_ai;"
 xmlns:graph="&ns_graphs;"
 enable-background="new 0 0 841.89 595.28">
 <defs>
  <style type="text/css">
   <![CDATA[
    .fil8 {fill:#0C5D9E}
    .fil0 {fill:#1677BE}
    .fil5 {fill:#266FB7}
    .fil2 {fill:#2B3E84}
    .fil1 {fill:#635AA3}
    .fil6 {fill:#797984}
    .fil3 {fill:#1677BE;fill-rule:nonzero}
    .fil9 {fill:#266FB7;fill-rule:nonzero}
    .fil4 {fill:#635AA3;fill-rule:nonzero}
    .fil7 {fill:#797984;fill-rule:nonzero}
   ]]>
  </style>
 </defs>
 <g id="Camada_x0020_1">
  <metadata id="CorelCorpID_0Corel-Layer"/>
  <g id="L" display="none">
   <path class="fil0" d="M5848 9527c-2778,0 -5030,-2252 -5030,-5030 0,-1879 1031,-3517 2558,-4380 -1861,745 -3176,2563 -3176,4690 0,2790 2261,5052 5051,5052 1015,0 1958,-300 2749,-815 -652,310 -1382,483 -2152,483z" display="inline"/>
   <path class="fil1" d="M5656 87c-1847,0 -3437,1095 -4160,2671 793,-1285 2214,-2141 3834,-2141 2487,0 4503,2016 4503,4502 0,1082 -382,2074 -1017,2851 872,-834 1416,-2007 1416,-3308 0,-2527 -2049,-4575 -4576,-4575z" display="inline"/>
   <path class="fil2" d="M6809 1575c1324,595 2247,1924 2247,3470 0,2100 -1702,3802 -3802,3802 -554,0 -1080,-119 -1554,-332 582,357 1267,563 2000,563 2117,0 3833,-1716 3833,-3833 0,-1731 -1148,-3194 -2724,-3670z" display="inline"/>
   <path class="fil3" d="M3936 5916c-116,101 -325,151 -629,151 -328,0 -609,-113 -842,-341 -28,-31 -87,-98 -176,-203l-689 243c169,230 291,381 367,456 370,366 816,548 1340,548 521,0 968,-182 1338,-548 370,-365 555,-807 555,-1324 0,-516 -185,-957 -555,-1322 -370,-367 -817,-550 -1338,-550 -448,0 -841,134 -1178,402 -56,46 -110,95 -162,147 -23,22 -87,91 -190,207l345 345 1814 1789zm-1152 -2102c79,-58 253,-88 523,-88 326,0 605,114 837,343 232,230 348,505 348,829 0,265 -30,437 -90,516l-1618 -1600z"/>
   <path class="fil4" d="M7380 5523l681 243c-167,230 -287,381 -363,456 -365,366 -805,548 -1322,548 -515,0 -955,-182 -1321,-548 -365,-365 -548,-807 -548,-1324 0,-516 183,-957 548,-1322 366,-367 806,-550 1321,-550 517,0 957,183 1322,549 76,75 196,225 363,450l-681 250c-87,-108 -147,-177 -177,-207 -228,-228 -503,-342 -827,-342 -322,0 -598,114 -826,343 -229,230 -343,505 -343,829 0,322 114,598 343,826 228,229 504,343 826,343 324,0 601,-113 830,-341 28,-31 87,-98 174,-203z"/>
   <path class="fil5" d="M5845 9532c-2777,0 -5029,-2252 -5029,-5029 0,-1879 1031,-3516 2557,-4379 -1860,744 -3175,2563 -3175,4689 0,2789 2261,5050 5051,5050 1013,0 1957,-300 2748,-814 -653,309 -1382,483 -2152,483z" display="inline"/>
   <path class="fil6" d="M5653 94c-1846,0 -3436,1095 -4158,2671 792,-1285 2212,-2141 3832,-2141 2486,0 4502,2015 4502,4501 0,1081 -382,2073 -1017,2849 872,-832 1415,-2005 1415,-3306 0,-2526 -2047,-4574 -4574,-4574z" display="inline"/>
   <path class="fil2" d="M6806 1582c1324,595 2246,1924 2246,3469 0,2099 -1702,3801 -3801,3801 -554,0 -1079,-120 -1554,-332 582,357 1267,563 2000,563 2116,0 3832,-1716 3832,-3832 0,-1731 -1147,-3193 -2723,-3669z" display="inline"/>
   <path class="fil7" d="M7377 5528l680 243c-167,230 -287,381 -362,456 -365,366 -806,548 -1322,548 -515,0 -955,-182 -1321,-548 -365,-365 -547,-806 -547,-1323 0,-517 182,-957 547,-1322 366,-367 806,-549 1321,-549 516,0 957,182 1322,548 75,75 195,225 362,450l-680 250c-88,-108 -147,-177 -177,-207 -228,-228 -504,-342 -827,-342 -322,0 -598,114 -826,343 -229,229 -343,505 -343,829 0,322 114,597 343,826 228,228 504,343 826,343 323,0 600,-113 830,-342 28,-30 86,-97 174,-203z"/>
   <path class="fil8" d="M4849 3801c-234,316 -351,681 -351,1094 0,413 117,778 351,1095 216,-289 333,-618 353,-986 -3,-36 -5,-72 -5,-109 0,-37 2,-73 5,-108 -20,-369 -137,-698 -353,-986z" display="inline"/>
   <path class="fil9" d="M3934 5922c-116,100 -325,151 -629,151 -329,0 -609,-113 -842,-342 -28,-30 -87,-97 -176,-203l-689 243c169,230 290,381 367,456 370,366 816,548 1340,548 521,0 967,-182 1337,-548 370,-365 555,-806 555,-1323 0,-517 -185,-957 -555,-1322 -370,-367 -816,-549 -1337,-549 -448,0 -841,133 -1178,401 -56,46 -110,95 -162,147 -23,22 -87,91 -190,207l345 345 1814 1789zm-1152 -2102c79,-58 252,-88 523,-88 325,0 605,114 836,343 232,229 348,505 348,829 0,264 -30,437 -90,515l-1617 -1599z"/>
  </g>
 </g>
</svg>
