<?xml version="1.0" encoding="UTF-8"?>
<!DOCTYPE svg PUBLIC "-//W3C//DTD SVG 1.1//EN" "http://www.w3.org/Graphics/SVG/1.1/DTD/svg11.dtd">
<!-- Creator: CorelDRAW X7 -->
<svg xmlns="http://www.w3.org/2000/svg" xml:space="preserve" width="259px" height="259px" version="1.1" style="shape-rendering:geometricPrecision; text-rendering:geometricPrecision; image-rendering:optimizeQuality; fill-rule:evenodd; clip-rule:evenodd"
viewBox="0 0 259 259"
 xmlns:xlink="http://www.w3.org/1999/xlink">
 <defs>
  <style type="text/css">
   <![CDATA[
    .str0 {stroke:#266FB7;stroke-width:0.900003}
    .fil0 {fill:#266FB7}
    .fil2 {fill:#344A5E}
    .fil9 {fill:#415A6B}
    .fil11 {fill:#4ABAA5}
    .fil10 {fill:#66C6B9}
    .fil3 {fill:#CED6E0}
    .fil4 {fill:#F05540}
    .fil5 {fill:#F3705A}
    .fil8 {fill:#F3F3F3}
    .fil6 {fill:#F7B64C}
    .fil7 {fill:#FFD15C}
    .fil1 {fill:white}
   ]]>
  </style>
 </defs>
 <g id="Camada_x0020_1">
  <metadata id="CorelCorpID_0Corel-Layer"/>
  <g id="_422992568">
   <path class="fil0 str0" d="M534 -90c-3,12 -8,23 -14,33l16 25 -22 22 -25 -16c-10,6 -21,11 -33,14l-6 28 -31 0 -6 -28c-12,-3 -23,-8 -33,-14l-25 16 -22 -22 16 -25c-7,-10 -12,-21 -14,-33l-28 -6 0 -32 28 -5c3,-12 8,-23 14,-34l-16 -24 22 -22 25 16c10,-6 21,-11 33,-14l6 -29 31 0 6 29c12,3 23,8 33,14l25 -16 22 22 -16 25c6,10 11,21 14,33l29 6 -1 31 -28 6z"/>
   <circle class="fil1" cx="434" cy="-112" r="74"/>
   <g>
    <path class="fil1" d="M435 -186c41,0 74,33 74,74l-74 -74zm0 0l0 0 0 0z"/>
   </g>
   <path class="fil2" d="M488 -66c-1,-8 -7,-15 -15,-17l-38 -10 -39 10c-8,2 -14,9 -15,17l-1 5c13,14 33,24 55,24 21,0 41,-10 54,-24l-1 -5z"/>
   <polygon class="fil3" points="444,-45 449,-96 420,-96 425,-45 "/>
   <polygon class="fil4" points="439,-73 444,-77 435,-87 425,-77 430,-73 "/>
   <path class="fil5" d="M426 -38c3,1 6,1 9,1 3,0 5,0 8,-1l-5 -35 -8 0 -4 35z"/>
   <polygon class="fil6" points="435,-87 435,-87 447,-98 447,-111 422,-111 422,-98 "/>
   <path class="fil7" d="M464 -126c-1,4 -4,8 -8,6 -3,0 -4,-4 -3,-9 1,-4 4,-7 7,-6 3,1 4,5 4,9z"/>
   <path class="fil7" d="M405 -126c1,4 4,8 8,6 3,0 4,-4 3,-9 -1,-4 -4,-7 -7,-6 -3,1 -4,5 -4,9z"/>
   <path class="fil7" d="M435 -159c-6,0 -11,2 -15,6 -1,0 -1,0 -1,0 -3,0 -4,1 -5,3 -4,1 -5,6 -2,9 -2,3 -3,8 -3,12 0,17 12,31 26,31 13,0 25,-14 25,-31 0,-17 -12,-30 -25,-30z"/>
   <polygon class="fil8" points="451,-92 444,-75 435,-87 447,-98 "/>
   <polygon class="fil8" points="418,-92 425,-75 435,-87 422,-98 "/>
   <path class="fil9" d="M454 -141c-4,-1 -8,0 -12,1 -5,1 -11,2 -15,0 -5,-1 -9,-7 -7,-12 -4,4 -4,11 0,15 -5,-2 -7,-8 -5,-12 -4,7 -7,20 -3,31 -3,-7 -4,-14 -4,-22 0,-10 1,-19 6,-25 2,-4 5,-5 9,-5l1 0c0,0 -3,-1 -5,0 1,-1 4,-1 6,0 0,0 0,-1 0,-1 2,-2 4,-3 6,-3 1,0 3,0 4,0 22,0 26,15 26,34 0,7 0,17 -3,22 2,-10 -1,-21 -4,-23z"/>
   <path class="fil9" d="M420 -96l-21 27 16 5 -10 8 8 15c6,2 11,3 16,4l-9 -59z"/>
   <path class="fil9" d="M449 -96l-9 59c5,-1 11,-2 16,-4l8 -15 -10 -8 16 -5 -21 -27z"/>
  </g>
  <path class="fil0" d="M258 130c0,-71 -58,-128 -128,-128 -71,0 -128,57 -128,128 0,70 57,127 128,127 70,0 128,-57 128,-127z"/>
  <path class="fil1" d="M73 91c0,-7 2,-14 7,-22 4,-7 11,-13 20,-18 9,-5 19,-7 31,-7 11,0 20,2 29,6 8,4 15,9 19,16 5,7 7,15 7,23 0,6 -1,12 -4,17 -2,5 -5,9 -9,12 -4,4 -10,10 -19,18 -3,2 -5,4 -7,6 -1,2 -2,4 -3,5 -1,2 -1,3 -2,5 0,1 -1,4 -2,7 -1,8 -6,12 -13,12 -4,0 -7,-1 -10,-4 -3,-2 -4,-6 -4,-11 0,-7 1,-12 3,-17 2,-4 4,-8 8,-12 3,-3 7,-8 13,-12 5,-5 8,-8 10,-10 3,-2 4,-5 6,-7 1,-3 2,-6 2,-9 0,-6 -2,-11 -7,-15 -4,-4 -10,-6 -17,-6 -8,0 -15,2 -19,6 -3,4 -7,10 -9,18 -3,9 -8,13 -15,13 -4,0 -8,-1 -11,-4 -3,-3 -4,-6 -4,-10zm55 124c-4,0 -8,-1 -12,-4 -3,-3 -5,-7 -5,-13 0,-4 2,-8 5,-12 3,-3 7,-5 12,-5 5,0 9,2 12,5 3,4 5,8 5,12 0,6 -2,10 -5,13 -3,3 -7,4 -12,4z"/>
  <g>
   <g id="_422988632">
    <path class="fil8" d="M-320 195l0 -25 -9 0 0 25c-6,2 -10,8 -10,14 0,8 6,14 14,14 8,0 15,-6 15,-14 0,-6 -4,-12 -10,-14zm-4 20c-3,0 -5,-3 -5,-5 0,-4 2,-6 5,-6 3,0 5,3 5,6 0,2 -2,5 -5,5z"/>
    <rect class="fil8" x="-436" y="27" width="229" height="132"/>
   </g>
   <g id="_422989184">
    <path class="fil7" d="M-209 27l-230 0c-7,0 -13,-7 -13,-14l0 0c0,-8 6,-14 13,-14l229 0c8,0 14,6 14,14l0 0c0,7 -6,14 -13,14z"/>
    <path class="fil7" d="M-209 185l-230 0c-7,0 -13,-6 -13,-13l0 0c0,-8 6,-14 13,-14l229 0c7,0 13,6 13,14l0 0c1,7 -5,13 -12,13z"/>
   </g>
   <path class="fil5" d="M-378 52c-20,0 -36,16 -36,37 0,19 16,36 36,36 10,0 19,-4 26,-11l-26 -25 0 -37 0 0z"/>
   <path class="fil7" d="M-368 88l25 26c7,-7 11,-16 11,-26l-36 0 0 0z"/>
   <path class="fil10" d="M-332 78c0,-19 -16,-36 -36,-36l0 36 36 0z"/>
   <g id="_423012104">
    <rect class="fil3" x="-305" y="50" width="71.4664" height="10.1339"/>
    <rect class="fil3" x="-305" y="78" width="71.4664" height="10.1339"/>
    <rect class="fil3" x="-305" y="107" width="71.4664" height="10.1339"/>
   </g>
   <polygon class="fil6" points="-405,186 -405,212 -390,223 -374,212 -374,186 "/>
   <path class="fil9" d="M-366 187c-12,21 -35,21 -47,0 -7,-13 -16,-53 24,-53 40,0 30,40 23,53z"/>
   <ellipse class="fil11" cx="-390" cy="206" rx="23" ry="9"/>
   <path class="fil10" d="M-327 255l-9 -34c-1,-5 -6,-9 -11,-11 -12,-3 -32,-6 -43,-6 -10,0 -30,4 -42,6 -6,1 -11,5 -12,11l-8 34 125 0z"/>
   <polygon class="fil6" points="-274,186 -274,212 -259,223 -244,212 -244,186 "/>
   <path class="fil9" d="M-236 187c-11,21 -35,21 -46,0 -7,-13 -17,-53 23,-53 40,0 30,40 23,53z"/>
   <ellipse class="fil11" cx="-259" cy="206" rx="23" ry="9"/>
   <path class="fil10" d="M-196 255l-9 -34c-2,-5 -6,-9 -11,-11 -12,-3 -32,-6 -43,-6 -10,0 -30,4 -43,6 -5,1 -10,5 -11,11l-8 34 125 0z"/>
   <g id="_423007832">
   </g>
   <g id="_423008096">
   </g>
   <g id="_423008360">
   </g>
   <g id="_423008336">
   </g>
   <g id="_423007088">
   </g>
   <g id="_423007304">
   </g>
   <g id="_423007448">
   </g>
   <g id="_423007184">
   </g>
   <g id="_423007256">
   </g>
   <g id="_423006464">
   </g>
   <g id="_423006704">
   </g>
   <g id="_423006368">
   </g>
   <g id="_423006104">
   </g>
   <g id="_423005912">
   </g>
   <g id="_423005960">
   </g>
  </g>
 </g>
</svg>
